<?xml version="1.0" encoding="UTF-8"?>
<svg id="Layer_2" data-name="Layer 2" xmlns="http://www.w3.org/2000/svg" viewBox="0 0 207.44 196.12">
  <defs>
    <style>
      .cls-1 {
        fill: #18194b;
      }
    </style>
  </defs>
  <g id="Layer_1" data-name="Layer 1">
    <path class="cls-1" d="M184.12,0H23.32C10.44,0,0,10.44,0,23.32v149.48c0,12.88,10.44,23.32,23.32,23.32h160.8c12.88,0,23.32-10.44,23.32-23.32V23.32c0-12.88-10.44-23.32-23.32-23.32ZM73.56,91.38l-1.03,90.67c-.01,1.43-1.17,2.57-2.6,2.57H26.42c-7.23,0-13.08-5.86-13.08-13.08v-70.47c0-9.68,7.85-17.53,17.53-17.53h34.92c4.28,0,7.74,3.46,7.76,7.72v.13ZM194.79,169.68c0,8.25-6.69,14.94-14.94,14.94h-97.35c-.89,0-1.54-.75-1.51-1.56,0-.23.07-.45.18-.68l40.91-75.59s0-.01,0-.02c1.28-2.36,1.22-5.03.16-7.22l-.21-.07s.05-.09.07-.14h.05c-.96-1.85-2.67-3.36-4.9-3.99l-32.2-9.11c-5.29-1.49-7.47-7.76-4.36-12.21.07-.09.13-.18.2-.28l43.31-56.67c.05-.07.1-.13.15-.19,2.27-2.64,6.67-1.09,6.73,2.44,0,.03,0,.05,0,.08l.03,44.14v14.33s.01.07.01.07c.05,3.08,2.55,5.56,5.64,5.56h42.4c8.62,0,15.61,6.99,15.61,15.61v70.54Z"/>
  </g>
</svg>