<?xml version="1.0" encoding="UTF-8"?>
<svg id="Layer_2" data-name="Layer 2" xmlns="http://www.w3.org/2000/svg" viewBox="0 0 763.37 196.12">
  <defs>
    <style>
      .cls-1 {
        fill: #efefe7;
      }
    </style>
  </defs>
  <g id="Layer_1" data-name="Layer 1">
    <path class="cls-1" d="M184.12,0H23.32C10.44,0,0,10.44,0,23.32v149.48c0,12.88,10.44,23.32,23.32,23.32h160.8c12.88,0,23.32-10.44,23.32-23.32V23.32c0-12.88-10.44-23.32-23.32-23.32ZM73.56,91.38l-1.03,90.67c-.01,1.43-1.17,2.57-2.6,2.57H26.42c-7.23,0-13.08-5.86-13.08-13.08v-70.47c0-9.68,7.85-17.53,17.53-17.53h34.92c4.28,0,7.74,3.46,7.76,7.72v.13ZM194.79,169.68c0,8.25-6.69,14.94-14.94,14.94h-97.35c-.89,0-1.54-.75-1.51-1.56,0-.23.07-.45.18-.68l40.91-75.59s0-.01,0-.02c1.28-2.36,1.22-5.03.16-7.22l-.21-.07s.05-.09.07-.14h.05c-.96-1.85-2.67-3.36-4.9-3.99l-32.2-9.11c-5.29-1.49-7.47-7.76-4.36-12.21.07-.09.13-.18.2-.28l43.31-56.67c.05-.07.1-.13.15-.19,2.27-2.64,6.67-1.09,6.73,2.44,0,.03,0,.05,0,.08l.03,44.14v14.33s.01.07.01.07c.05,3.08,2.55,5.56,5.64,5.56h42.4c8.62,0,15.61,6.99,15.61,15.61v70.54Z"/>
    <g>
      <path class="cls-1" d="M324.6,148.27c-8.38,0-13.39-4.05-13.39-10.82v-47.36h20.83v-17.98h-20.83v-24.63h-33.19v24.63h-15.46v17.98h15.46v50.9c-.12,8.36,2.41,14.82,7.5,19.2,5.81,4.99,15.15,7.53,27.74,7.53,1.53,0,3.13-.04,4.74-.11,6.36-.31,11.67-1.19,15.38-1.97l-4.3-17.7c-1.51.19-3.11.34-4.47.34Z"/>
      <path class="cls-1" d="M423.37,72.1v53.4c.04,6.35-2.24,11.69-6.62,15.42-4.09,3.49-9.7,5.33-16.24,5.33-13.81,0-22.44-7.93-22.55-20.73v-53.43h-33.19v61.19c.07,20.44,14.99,34.16,37.11,34.16.78,0,1.55-.02,2.31-.05h-.19s4.69-.04,7.93-.47l-.39.02c23.17-2.05,34.03-20.38,34.03-20.38v19.54h30.97v-94.01h-33.18ZM386.47,167.27c.41-.04.81-.07,1.2-.11.46,0,.9-.03,1.36-.04l-2.56.16Z"/>
      <rect class="cls-1" x="475.1" y="37.83" width="33.19" height="128.28"/>
      <path class="cls-1" d="M560.1,74.53v91.58h-33.19s0-91.58,0-91.58c0,.27,2,.79,2.24.87,4.95,1.67,10.13,2.51,15.35,2.39,5.34-.12,10.67-1.2,15.6-3.26Z"/>
      <path class="cls-1" d="M588.08,64.76v7.34h-15.46v17.98h15.46v76.03h33.19v-76.03h22.09v-17.98h-22.09v-8.95c0-8.02,5.54-12.43,15.6-12.43,2.07,0,4.58.19,7.01.51l4.26-17.91c-5.7-.94-13.87-1.92-21.68-1.92-25.1,0-38.37,11.53-38.37,33.35Z"/>
      <path class="cls-1" d="M705.75,70.77c-35.54,0-57.62,18.63-57.62,48.61s22.08,48.61,57.62,48.61,57.62-18.63,57.62-48.61-22.08-48.61-57.62-48.61ZM706.07,149.48c-11.51,0-23.81-7.98-23.81-30.37s12.3-30.37,23.81-30.37,23.17,7.98,23.17,30.37-11.98,30.37-23.17,30.37Z"/>
    </g>
    <path class="cls-1" d="M560.1,45.48c0,7.78-7.43,14.08-16.6,14.08s-16.6-6.3-16.6-14.08,7.43-14.07,16.6-14.07,16.6,6.3,16.6,14.07Z"/>
  </g>
</svg>